#!OML:ASF H:\Terrain\Patient Classification 1\Takeo\Monday\TakeoMonday.ASF
:FULLY-SPECIFIED
:DEGREES
280
root 7.94676 17.829 2.19831 -1.88634 13.781 -5.1666
lowerback 10.1513 -1.04851 2.62214
upperback 0.804075 -1.43932 -6.88361
thorax -5.11743 -0.848132 -8.6279
lowerneck -9.77754 -11.0402 -7.99989
upperneck -17.4986 -13.5356 6.09584
head -3.11324 -6.33921 3.21043
rclavicle 8.74653e-015 1.90833e-014
rhumerus 68.9419 -33.9781 -33.3323
rradius 25.5955
rwrist -4.93558
rhand -40.5956 38.3696
rfingers 7.12502
rthumb -13.5419 8.82995
lclavicle 8.74653e-015 1.90833e-014
lhumerus -42.9017 5.01341 78.8852
lradius 57.5809
lwrist 32.6329
lhand -29.9877 14.8442
lfingers 7.12502
lthumb -3.30554 44.7983
rfemur -3.56616 -3.96151 28.8515
rtibia 17.043
rfoot -10.1485 -10.621
rtoes 1.33684
lfemur 4.87219 0.013103 -9.53209
ltibia 21.4972
lfoot -14.0183 17.5926
ltoes -16.1073
281
root 7.93978 17.8345 2.22723 -1.99977 13.8307 -5.34441
lowerback 10.0662 -1.03216 2.87246
upperback 0.812977 -1.39641 -7.0471
thorax -5.06414 -0.833259 -8.96464
lowerneck -10.1266 -11.227 -7.7684
upperneck -17.3543 -13.7694 6.04885
head -3.00572 -6.46423 3.11552
rclavicle 4.77083e-015 6.36111e-015
rhumerus 69.6904 -34.6578 -34.1704
rradius 25.1471
rwrist -4.68397
rhand -40.7984 38.3383
rfingers 7.12502
rthumb -13.7374 8.81183
lclavicle 4.77083e-015 6.36111e-015
lhumerus -42.8765 5.02176 78.4703
lradius 57.4166
lwrist 32.4778
lhand -30.1808 15.3625
lfingers 7.12502
lthumb -3.49202 45.3136
rfemur -3.31104 -4.0324 29.042
rtibia 16.7857
rfoot -10.11 -10.578
rtoes 1.06861
lfemur 5.0595 -0.138404 -9.29522
ltibia 21.4757
lfoot -14.2985 17.4789
ltoes -15.357
282
root 7.93006 17.8336 2.24902 -2.08608 13.8953 -5.39633
lowerback 10.0623 -1.02438 2.869
upperback 0.766093 -1.39226 -7.12311
thorax -5.11323 -0.835138 -9.04907
lowerneck -10.3397 -11.3936 -7.84433
upperneck -17.2436 -13.9596 6.07796
head -2.91128 -6.55278 3.10703
rclavicle -2.3059e-014 0
rhumerus 70.1822 -35.124 -34.4482
rradius 24.8899
rwrist -4.66734
rhand -41.6148 37.7326
rfingers 7.12502
rthumb -14.5241 8.26096
lclavicle -2.3059e-014 0
lhumerus -42.9832 5.18379 78.2109
lradius 57.2688
lwrist 32.4957
lhand -30.2654 15.5777
lfingers 7.12502
lthumb -3.5738 45.5275
rfemur -3.06759 -4.17627 29.1089
rtibia 16.5075
rfoot -10.0248 -10.4553
rtoes 0.94349
lfemur 5.16394 -0.0720159 -9.1472
ltibia 21.5093
lfoot -14.4787 17.301
ltoes -15.0112
283
root 7.92198 17.8257 2.26207 -2.20627 13.9191 -5.53112
lowerback 10.1303 -1.08912 2.87713
upperback 0.691326 -1.48334 -7.1413
thorax -5.24815 -0.887754 -9.06245
lowerneck -10.6921 -11.3671 -7.6965
upperneck -17.0108 -13.9193 5.87792
head -2.79902 -6.5355 2.98326
rclavicle -2.8625e-014 1.59028e-014
rhumerus 71.0468 -35.4739 -35.1889
rradius 24.5261
rwrist -4.31272
rhand -42.274 37.4523
rfingers 7.12502
rthumb -15.1591 8.02753
lclavicle -2.8625e-014 1.59028e-014
lhumerus -43.1607 5.48505 77.9165
lradius 57.1613
lwrist 32.7312
lhand -30.3938 15.3567
lfingers 7.12502
lthumb -3.69776 45.3044
rfemur -2.83144 -4.23876 29.2629
rtibia 16.2718
rfoot -9.90027 -10.3259
rtoes 0.315569
lfemur 5.22976 0.154468 -8.91484
ltibia 21.5645
lfoot -14.2562 17.2652
ltoes -16.0787
284
root 7.91619 17.8179 2.27889 -2.37133 13.9613 -5.88957
lowerback 10.1215 -1.1125 3.18185
upperback 0.652379 -1.48123 -7.11956
thorax -5.29169 -0.897126 -9.22085
lowerneck -11.1602 -11.3292 -7.51754
upperneck -16.6655 -13.8627 5.59066
head -2.63909 -6.51014 2.81446
rclavicle 2.70347e-014 1.90833e-014
rhumerus 71.5953 -35.9537 -35.5949
rradius 24.1797
rwrist -3.87428
rhand -42.142 37.3171
rfingers 7.12502
rthumb -15.032 7.88276
lclavicle 2.70347e-014 1.90833e-014
lhumerus -43.2013 5.58581 77.6901
lradius 56.7891
lwrist 32.8889
lhand -30.5186 14.5894
lfingers 7.12502
lthumb -3.81823 44.5349
rfemur -2.5572 -4.35215 29.6512
rtibia 16.0168
rfoot -9.79854 -10.2015
rtoes 0.236599
lfemur 5.29417 0.285727 -8.46836
ltibia 21.6563
lfoot -14.0786 17.2729
ltoes -17.3133
285
root 7.91521 17.8194 2.2965 -2.35509 14.0233 -5.89526
lowerback 10.072 -1.08401 3.18402
upperback 0.54455 -1.45037 -7.17095
thorax -5.3746 -0.888841 -9.28625
lowerneck -11.4643 -11.3651 -7.43148
upperneck -16.3841 -13.9066 5.35562
head -2.51327 -6.53126 2.68814
rclavicle -1.66979e-014 3.18055e-015
rhumerus 71.5919 -36.2914 -35.2199
rradius 24.0117
rwrist -4.21531
rhand -41.91 37.0692
rfingers 7.12502
rthumb -14.8084 7.61828
lclavicle -1.66979e-014 3.18055e-015
lhumerus -43.3409 5.60997 77.5554
lradius 56.4148
lwrist 32.8054
lhand -30.6391 14.1491
lfingers 7.12502
lthumb -3.9346 44.0926
rfemur -2.26831 -4.64274 29.6381
rtibia 15.5463
rfoot -9.71601 -9.9181
rtoes 0.809164
lfemur 5.24344 0.224581 -8.46766
ltibia 21.8514
lfoot -14.1695 17.3029
ltoes -17.6348
